<svg width="18" height="18" viewBox="0 0 18 18" fill="none" xmlns="http://www.w3.org/2000/svg">
<path d="M15.2678 10.7007C15.3718 10.7007 15.4716 10.7424 15.5452 10.8159C15.6187 10.8895 15.6604 10.9893 15.6604 11.0933V16.6802C15.6604 16.7841 15.6186 16.884 15.5452 16.9575C15.4716 17.0311 15.3718 17.0727 15.2678 17.0728H5.02075C4.91673 17.0727 4.81697 17.0311 4.74341 16.9575C4.66996 16.884 4.62817 16.7841 4.62817 16.6802V11.0933C4.62819 10.9892 4.66985 10.8895 4.74341 10.8159C4.81696 10.7424 4.91673 10.7007 5.02075 10.7007C5.12477 10.7007 5.22453 10.7424 5.2981 10.8159C5.37165 10.8895 5.41331 10.9892 5.41333 11.0933V16.2886H14.8752V11.0933C14.8753 10.9892 14.9169 10.8895 14.9905 10.8159C15.064 10.7424 15.1638 10.7007 15.2678 10.7007Z" fill="#9C9C9C" stroke="#9C9C9C" stroke-width="0.225887"/>
<mask id="path-2-outside-1_1_251" maskUnits="userSpaceOnUse" x="1.74146" y="0.288574" width="17" height="17" fill="black">
<rect fill="white" x="1.74146" y="0.288574" width="17" height="17"/>
<path d="M16.4266 11.0661C16.3564 11.0667 16.2886 11.0407 16.2366 10.9935L10.141 5.47058L4.04817 10.9935C4.02105 11.0182 3.98933 11.0374 3.95482 11.0498C3.92031 11.0623 3.88368 11.0678 3.84703 11.0661C3.80994 11.0645 3.77355 11.0556 3.73997 11.0397C3.7064 11.0239 3.67631 11.0015 3.65148 10.974L2.8134 10.0437C2.76388 9.98881 2.73813 9.91653 2.7418 9.8427C2.74546 9.76887 2.77824 9.6995 2.83295 9.64979L9.95661 3.1938C10.0079 3.14747 10.0746 3.12183 10.1438 3.12183C10.2129 3.12183 10.2796 3.14747 10.331 3.1938L17.4518 9.64979C17.5057 9.69941 17.5379 9.7682 17.5416 9.84135C17.5452 9.9145 17.52 9.98616 17.4714 10.0409L16.6333 10.9712C16.5838 11.0262 16.5145 11.0594 16.4405 11.0634L16.4266 11.0661ZM3.41123 9.87607L3.87776 10.3929L9.95382 4.88672C10.0052 4.84039 10.0718 4.81475 10.141 4.81475C10.2101 4.81475 10.2768 4.84039 10.3282 4.88672L16.4042 10.3929L16.8707 9.87607L10.141 3.77766L3.41123 9.87607ZM8.9146 16.9606C8.84051 16.9606 8.76945 16.9312 8.71706 16.8788C8.66468 16.8264 8.63524 16.7554 8.63524 16.6813V12.1724H6.71605V16.6813C6.71605 16.7554 6.68661 16.8264 6.63422 16.8788C6.58183 16.9312 6.51078 16.9606 6.43669 16.9606C6.3626 16.9606 6.29154 16.9312 6.23915 16.8788C6.18676 16.8264 6.15733 16.7554 6.15733 16.6813V11.893C6.15733 11.819 6.18676 11.7479 6.23915 11.6955C6.29154 11.6431 6.3626 11.6137 6.43669 11.6137H8.9146C8.98869 11.6137 9.05975 11.6431 9.11214 11.6955C9.16453 11.7479 9.19396 11.819 9.19396 11.893V16.6813C9.19396 16.7554 9.16453 16.8264 9.11214 16.8788C9.05975 16.9312 8.98869 16.9606 8.9146 16.9606ZM10.5433 13.3038C10.4692 13.3038 10.3981 13.2744 10.3457 13.222C10.2933 13.1696 10.2639 13.0985 10.2639 13.0245V11.907C10.2639 11.8329 10.2933 11.7619 10.3457 11.7095C10.3981 11.6571 10.4692 11.6277 10.5433 11.6277H11.6607C11.7348 11.6277 11.8058 11.6571 11.8582 11.7095C11.9106 11.7619 11.9401 11.8329 11.9401 11.907C11.9401 11.9811 11.9106 12.0522 11.8582 12.1046C11.8058 12.1569 11.7348 12.1864 11.6607 12.1864H10.8226V13.0245C10.8226 13.0985 10.7932 13.1696 10.7408 13.222C10.6884 13.2744 10.6174 13.3038 10.5433 13.3038ZM12.7139 13.0217C12.6398 13.0217 12.5687 12.9922 12.5163 12.9398C12.464 12.8874 12.4345 12.8164 12.4345 12.7423V11.9042C12.4345 11.8301 12.464 11.7591 12.5163 11.7067C12.5687 11.6543 12.6398 11.6249 12.7139 11.6249H13.8313C13.9054 11.6249 13.9765 11.6543 14.0289 11.7067C14.0812 11.7591 14.1107 11.8301 14.1107 11.9042C14.1107 11.9783 14.0812 12.0494 14.0289 12.1018C13.9765 12.1541 13.9054 12.1836 13.8313 12.1836H12.9932V12.7423C12.9932 12.8164 12.9638 12.8874 12.9114 12.9398C12.859 12.9922 12.788 13.0217 12.7139 13.0217ZM10.5433 15.4241C10.4692 15.4241 10.3981 15.3947 10.3457 15.3423C10.2933 15.2899 10.2639 15.2189 10.2639 15.1448V14.0134C10.2639 13.9393 10.2933 13.8682 10.3457 13.8158C10.3981 13.7635 10.4692 13.734 10.5433 13.734H11.6607C11.7348 13.734 11.8058 13.7635 11.8582 13.8158C11.9106 13.8682 11.9401 13.9393 11.9401 14.0134C11.9401 14.0875 11.9106 14.1585 11.8582 14.2109C11.8058 14.2633 11.7348 14.2927 11.6607 14.2927H10.8226V15.1448C10.8226 15.2189 10.7932 15.2899 10.7408 15.3423C10.6884 15.3947 10.6174 15.4241 10.5433 15.4241ZM12.7139 15.4241C12.6398 15.4241 12.5687 15.3947 12.5163 15.3423C12.464 15.2899 12.4345 15.2189 12.4345 15.1448V14.0134C12.4345 13.9393 12.464 13.8682 12.5163 13.8158C12.5687 13.7635 12.6398 13.734 12.7139 13.734H13.8313C13.9054 13.734 13.9765 13.7635 14.0289 13.8158C14.0812 13.8682 14.1107 13.9393 14.1107 14.0134C14.1107 14.0875 14.0812 14.1585 14.0289 14.2109C13.9765 14.2633 13.9054 14.2927 13.8313 14.2927H12.9932V15.1448C12.9932 15.2189 12.9638 15.2899 12.9114 15.3423C12.859 15.3947 12.788 15.4241 12.7139 15.4241ZM14.8566 6.57964C14.7825 6.57964 14.7114 6.5502 14.659 6.49781C14.6066 6.44542 14.5772 6.37437 14.5772 6.30028V4.10172H13.5576V4.86716C13.5576 4.94126 13.5281 5.01231 13.4757 5.0647C13.4233 5.11709 13.3523 5.14652 13.2782 5.14652C13.2041 5.14652 13.133 5.11709 13.0807 5.0647C13.0283 5.01231 12.9988 4.94126 12.9988 4.86716V3.82236C12.9988 3.74827 13.0283 3.67722 13.0807 3.62483C13.133 3.57244 13.2041 3.543 13.2782 3.543H14.8566C14.9307 3.543 15.0017 3.57244 15.0541 3.62483C15.1065 3.67722 15.1359 3.74827 15.1359 3.82236V6.30028C15.1359 6.37437 15.1065 6.44542 15.0541 6.49781C15.0017 6.5502 14.9307 6.57964 14.8566 6.57964ZM16.935 1.84729H3.34697C3.27288 1.84729 3.20183 1.81786 3.14944 1.76547C3.09705 1.71308 3.06762 1.64202 3.06762 1.56793C3.06762 1.49384 3.09705 1.42279 3.14944 1.3704C3.20183 1.31801 3.27288 1.28857 3.34697 1.28857H16.935C17.0091 1.28857 17.0801 1.31801 17.1325 1.3704C17.1849 1.42279 17.2144 1.49384 17.2144 1.56793C17.2144 1.64202 17.1849 1.71308 17.1325 1.76547C17.0801 1.81786 17.0091 1.84729 16.935 1.84729Z"/>
</mask>
<path d="M16.4266 11.0661C16.3564 11.0667 16.2886 11.0407 16.2366 10.9935L10.141 5.47058L4.04817 10.9935C4.02105 11.0182 3.98933 11.0374 3.95482 11.0498C3.92031 11.0623 3.88368 11.0678 3.84703 11.0661C3.80994 11.0645 3.77355 11.0556 3.73997 11.0397C3.7064 11.0239 3.67631 11.0015 3.65148 10.974L2.8134 10.0437C2.76388 9.98881 2.73813 9.91653 2.7418 9.8427C2.74546 9.76887 2.77824 9.6995 2.83295 9.64979L9.95661 3.1938C10.0079 3.14747 10.0746 3.12183 10.1438 3.12183C10.2129 3.12183 10.2796 3.14747 10.331 3.1938L17.4518 9.64979C17.5057 9.69941 17.5379 9.7682 17.5416 9.84135C17.5452 9.9145 17.52 9.98616 17.4714 10.0409L16.6333 10.9712C16.5838 11.0262 16.5145 11.0594 16.4405 11.0634L16.4266 11.0661ZM3.41123 9.87607L3.87776 10.3929L9.95382 4.88672C10.0052 4.84039 10.0718 4.81475 10.141 4.81475C10.2101 4.81475 10.2768 4.84039 10.3282 4.88672L16.4042 10.3929L16.8707 9.87607L10.141 3.77766L3.41123 9.87607ZM8.9146 16.9606C8.84051 16.9606 8.76945 16.9312 8.71706 16.8788C8.66468 16.8264 8.63524 16.7554 8.63524 16.6813V12.1724H6.71605V16.6813C6.71605 16.7554 6.68661 16.8264 6.63422 16.8788C6.58183 16.9312 6.51078 16.9606 6.43669 16.9606C6.3626 16.9606 6.29154 16.9312 6.23915 16.8788C6.18676 16.8264 6.15733 16.7554 6.15733 16.6813V11.893C6.15733 11.819 6.18676 11.7479 6.23915 11.6955C6.29154 11.6431 6.3626 11.6137 6.43669 11.6137H8.9146C8.98869 11.6137 9.05975 11.6431 9.11214 11.6955C9.16453 11.7479 9.19396 11.819 9.19396 11.893V16.6813C9.19396 16.7554 9.16453 16.8264 9.11214 16.8788C9.05975 16.9312 8.98869 16.9606 8.9146 16.9606ZM10.5433 13.3038C10.4692 13.3038 10.3981 13.2744 10.3457 13.222C10.2933 13.1696 10.2639 13.0985 10.2639 13.0245V11.907C10.2639 11.8329 10.2933 11.7619 10.3457 11.7095C10.3981 11.6571 10.4692 11.6277 10.5433 11.6277H11.6607C11.7348 11.6277 11.8058 11.6571 11.8582 11.7095C11.9106 11.7619 11.9401 11.8329 11.9401 11.907C11.9401 11.9811 11.9106 12.0522 11.8582 12.1046C11.8058 12.1569 11.7348 12.1864 11.6607 12.1864H10.8226V13.0245C10.8226 13.0985 10.7932 13.1696 10.7408 13.222C10.6884 13.2744 10.6174 13.3038 10.5433 13.3038ZM12.7139 13.0217C12.6398 13.0217 12.5687 12.9922 12.5163 12.9398C12.464 12.8874 12.4345 12.8164 12.4345 12.7423V11.9042C12.4345 11.8301 12.464 11.7591 12.5163 11.7067C12.5687 11.6543 12.6398 11.6249 12.7139 11.6249H13.8313C13.9054 11.6249 13.9765 11.6543 14.0289 11.7067C14.0812 11.7591 14.1107 11.8301 14.1107 11.9042C14.1107 11.9783 14.0812 12.0494 14.0289 12.1018C13.9765 12.1541 13.9054 12.1836 13.8313 12.1836H12.9932V12.7423C12.9932 12.8164 12.9638 12.8874 12.9114 12.9398C12.859 12.9922 12.788 13.0217 12.7139 13.0217ZM10.5433 15.4241C10.4692 15.4241 10.3981 15.3947 10.3457 15.3423C10.2933 15.2899 10.2639 15.2189 10.2639 15.1448V14.0134C10.2639 13.9393 10.2933 13.8682 10.3457 13.8158C10.3981 13.7635 10.4692 13.734 10.5433 13.734H11.6607C11.7348 13.734 11.8058 13.7635 11.8582 13.8158C11.9106 13.8682 11.9401 13.9393 11.9401 14.0134C11.9401 14.0875 11.9106 14.1585 11.8582 14.2109C11.8058 14.2633 11.7348 14.2927 11.6607 14.2927H10.8226V15.1448C10.8226 15.2189 10.7932 15.2899 10.7408 15.3423C10.6884 15.3947 10.6174 15.4241 10.5433 15.4241ZM12.7139 15.4241C12.6398 15.4241 12.5687 15.3947 12.5163 15.3423C12.464 15.2899 12.4345 15.2189 12.4345 15.1448V14.0134C12.4345 13.9393 12.464 13.8682 12.5163 13.8158C12.5687 13.7635 12.6398 13.734 12.7139 13.734H13.8313C13.9054 13.734 13.9765 13.7635 14.0289 13.8158C14.0812 13.8682 14.1107 13.9393 14.1107 14.0134C14.1107 14.0875 14.0812 14.1585 14.0289 14.2109C13.9765 14.2633 13.9054 14.2927 13.8313 14.2927H12.9932V15.1448C12.9932 15.2189 12.9638 15.2899 12.9114 15.3423C12.859 15.3947 12.788 15.4241 12.7139 15.4241ZM14.8566 6.57964C14.7825 6.57964 14.7114 6.5502 14.659 6.49781C14.6066 6.44542 14.5772 6.37437 14.5772 6.30028V4.10172H13.5576V4.86716C13.5576 4.94126 13.5281 5.01231 13.4757 5.0647C13.4233 5.11709 13.3523 5.14652 13.2782 5.14652C13.2041 5.14652 13.133 5.11709 13.0807 5.0647C13.0283 5.01231 12.9988 4.94126 12.9988 4.86716V3.82236C12.9988 3.74827 13.0283 3.67722 13.0807 3.62483C13.133 3.57244 13.2041 3.543 13.2782 3.543H14.8566C14.9307 3.543 15.0017 3.57244 15.0541 3.62483C15.1065 3.67722 15.1359 3.74827 15.1359 3.82236V6.30028C15.1359 6.37437 15.1065 6.44542 15.0541 6.49781C15.0017 6.5502 14.9307 6.57964 14.8566 6.57964ZM16.935 1.84729H3.34697C3.27288 1.84729 3.20183 1.81786 3.14944 1.76547C3.09705 1.71308 3.06762 1.64202 3.06762 1.56793C3.06762 1.49384 3.09705 1.42279 3.14944 1.3704C3.20183 1.31801 3.27288 1.28857 3.34697 1.28857H16.935C17.0091 1.28857 17.0801 1.31801 17.1325 1.3704C17.1849 1.42279 17.2144 1.49384 17.2144 1.56793C17.2144 1.64202 17.1849 1.71308 17.1325 1.76547C17.0801 1.81786 17.0091 1.84729 16.935 1.84729Z" fill="#9C9C9C"/>
<path d="M16.4266 11.0661C16.3564 11.0667 16.2886 11.0407 16.2366 10.9935L10.141 5.47058L4.04817 10.9935C4.02105 11.0182 3.98933 11.0374 3.95482 11.0498C3.92031 11.0623 3.88368 11.0678 3.84703 11.0661C3.80994 11.0645 3.77355 11.0556 3.73997 11.0397C3.7064 11.0239 3.67631 11.0015 3.65148 10.974L2.8134 10.0437C2.76388 9.98881 2.73813 9.91653 2.7418 9.8427C2.74546 9.76887 2.77824 9.6995 2.83295 9.64979L9.95661 3.1938C10.0079 3.14747 10.0746 3.12183 10.1438 3.12183C10.2129 3.12183 10.2796 3.14747 10.331 3.1938L17.4518 9.64979C17.5057 9.69941 17.5379 9.7682 17.5416 9.84135C17.5452 9.9145 17.52 9.98616 17.4714 10.0409L16.6333 10.9712C16.5838 11.0262 16.5145 11.0594 16.4405 11.0634L16.4266 11.0661ZM3.41123 9.87607L3.87776 10.3929L9.95382 4.88672C10.0052 4.84039 10.0718 4.81475 10.141 4.81475C10.2101 4.81475 10.2768 4.84039 10.3282 4.88672L16.4042 10.3929L16.8707 9.87607L10.141 3.77766L3.41123 9.87607ZM8.9146 16.9606C8.84051 16.9606 8.76945 16.9312 8.71706 16.8788C8.66468 16.8264 8.63524 16.7554 8.63524 16.6813V12.1724H6.71605V16.6813C6.71605 16.7554 6.68661 16.8264 6.63422 16.8788C6.58183 16.9312 6.51078 16.9606 6.43669 16.9606C6.3626 16.9606 6.29154 16.9312 6.23915 16.8788C6.18676 16.8264 6.15733 16.7554 6.15733 16.6813V11.893C6.15733 11.819 6.18676 11.7479 6.23915 11.6955C6.29154 11.6431 6.3626 11.6137 6.43669 11.6137H8.9146C8.98869 11.6137 9.05975 11.6431 9.11214 11.6955C9.16453 11.7479 9.19396 11.819 9.19396 11.893V16.6813C9.19396 16.7554 9.16453 16.8264 9.11214 16.8788C9.05975 16.9312 8.98869 16.9606 8.9146 16.9606ZM10.5433 13.3038C10.4692 13.3038 10.3981 13.2744 10.3457 13.222C10.2933 13.1696 10.2639 13.0985 10.2639 13.0245V11.907C10.2639 11.8329 10.2933 11.7619 10.3457 11.7095C10.3981 11.6571 10.4692 11.6277 10.5433 11.6277H11.6607C11.7348 11.6277 11.8058 11.6571 11.8582 11.7095C11.9106 11.7619 11.9401 11.8329 11.9401 11.907C11.9401 11.9811 11.9106 12.0522 11.8582 12.1046C11.8058 12.1569 11.7348 12.1864 11.6607 12.1864H10.8226V13.0245C10.8226 13.0985 10.7932 13.1696 10.7408 13.222C10.6884 13.2744 10.6174 13.3038 10.5433 13.3038ZM12.7139 13.0217C12.6398 13.0217 12.5687 12.9922 12.5163 12.9398C12.464 12.8874 12.4345 12.8164 12.4345 12.7423V11.9042C12.4345 11.8301 12.464 11.7591 12.5163 11.7067C12.5687 11.6543 12.6398 11.6249 12.7139 11.6249H13.8313C13.9054 11.6249 13.9765 11.6543 14.0289 11.7067C14.0812 11.7591 14.1107 11.8301 14.1107 11.9042C14.1107 11.9783 14.0812 12.0494 14.0289 12.1018C13.9765 12.1541 13.9054 12.1836 13.8313 12.1836H12.9932V12.7423C12.9932 12.8164 12.9638 12.8874 12.9114 12.9398C12.859 12.9922 12.788 13.0217 12.7139 13.0217ZM10.5433 15.4241C10.4692 15.4241 10.3981 15.3947 10.3457 15.3423C10.2933 15.2899 10.2639 15.2189 10.2639 15.1448V14.0134C10.2639 13.9393 10.2933 13.8682 10.3457 13.8158C10.3981 13.7635 10.4692 13.734 10.5433 13.734H11.6607C11.7348 13.734 11.8058 13.7635 11.8582 13.8158C11.9106 13.8682 11.9401 13.9393 11.9401 14.0134C11.9401 14.0875 11.9106 14.1585 11.8582 14.2109C11.8058 14.2633 11.7348 14.2927 11.6607 14.2927H10.8226V15.1448C10.8226 15.2189 10.7932 15.2899 10.7408 15.3423C10.6884 15.3947 10.6174 15.4241 10.5433 15.4241ZM12.7139 15.4241C12.6398 15.4241 12.5687 15.3947 12.5163 15.3423C12.464 15.2899 12.4345 15.2189 12.4345 15.1448V14.0134C12.4345 13.9393 12.464 13.8682 12.5163 13.8158C12.5687 13.7635 12.6398 13.734 12.7139 13.734H13.8313C13.9054 13.734 13.9765 13.7635 14.0289 13.8158C14.0812 13.8682 14.1107 13.9393 14.1107 14.0134C14.1107 14.0875 14.0812 14.1585 14.0289 14.2109C13.9765 14.2633 13.9054 14.2927 13.8313 14.2927H12.9932V15.1448C12.9932 15.2189 12.9638 15.2899 12.9114 15.3423C12.859 15.3947 12.788 15.4241 12.7139 15.4241ZM14.8566 6.57964C14.7825 6.57964 14.7114 6.5502 14.659 6.49781C14.6066 6.44542 14.5772 6.37437 14.5772 6.30028V4.10172H13.5576V4.86716C13.5576 4.94126 13.5281 5.01231 13.4757 5.0647C13.4233 5.11709 13.3523 5.14652 13.2782 5.14652C13.2041 5.14652 13.133 5.11709 13.0807 5.0647C13.0283 5.01231 12.9988 4.94126 12.9988 4.86716V3.82236C12.9988 3.74827 13.0283 3.67722 13.0807 3.62483C13.133 3.57244 13.2041 3.543 13.2782 3.543H14.8566C14.9307 3.543 15.0017 3.57244 15.0541 3.62483C15.1065 3.67722 15.1359 3.74827 15.1359 3.82236V6.30028C15.1359 6.37437 15.1065 6.44542 15.0541 6.49781C15.0017 6.5502 14.9307 6.57964 14.8566 6.57964ZM16.935 1.84729H3.34697C3.27288 1.84729 3.20183 1.81786 3.14944 1.76547C3.09705 1.71308 3.06762 1.64202 3.06762 1.56793C3.06762 1.49384 3.09705 1.42279 3.14944 1.3704C3.20183 1.31801 3.27288 1.28857 3.34697 1.28857H16.935C17.0091 1.28857 17.0801 1.31801 17.1325 1.3704C17.1849 1.42279 17.2144 1.49384 17.2144 1.56793C17.2144 1.64202 17.1849 1.71308 17.1325 1.76547C17.0801 1.81786 17.0091 1.84729 16.935 1.84729Z" stroke="#9C9C9C" stroke-width="0.451774" mask="url(#path-2-outside-1_1_251)"/>
<path d="M1.56763 2.79541C1.67154 2.79541 1.77143 2.83627 1.84497 2.90967C1.91854 2.98324 1.96021 3.08394 1.96021 3.18799V16.7759C1.96011 16.8798 1.91846 16.9797 1.84497 17.0532C1.77142 17.1267 1.67158 17.1675 1.56763 17.1675C1.46367 17.1675 1.36383 17.1267 1.29028 17.0532C1.21679 16.9797 1.17514 16.8798 1.17505 16.7759V3.18799C1.17505 3.08394 1.21671 2.98324 1.29028 2.90967C1.36382 2.83625 1.46371 2.79543 1.56763 2.79541ZM4.40454 0.112793C4.50809 0.112793 4.60743 0.154111 4.68091 0.227051C4.71768 0.263521 4.74693 0.307175 4.76685 0.35498C4.78669 0.402661 4.79708 0.453728 4.79712 0.505371C4.79712 0.557159 4.78676 0.608932 4.76685 0.656738C4.74693 0.704459 4.71762 0.748252 4.68091 0.784668L4.67993 0.783691L3.89478 1.56689L4.68188 2.35596C4.75495 2.42946 4.79614 2.52966 4.79614 2.6333C4.79606 2.73679 4.75483 2.83625 4.68188 2.90967H4.68091C4.61076 2.97936 4.51703 3.02048 4.41821 3.02393H4.41431C4.31139 3.02349 4.21199 2.98214 4.13892 2.90967V2.91064L3.06372 1.84619L3.06274 1.84521C2.98986 1.77179 2.94952 1.67231 2.94946 1.56885C2.94946 1.46541 2.98995 1.36594 3.06274 1.29248L4.12817 0.227051C4.20165 0.154095 4.30099 0.112804 4.40454 0.112793ZM15.8665 0.112793C15.97 0.112793 16.0693 0.154171 16.1428 0.227051H16.1438L17.219 1.30029C17.292 1.37372 17.3332 1.47314 17.3333 1.57666C17.3333 1.6803 17.2921 1.7805 17.219 1.854L16.1545 2.91846L16.1506 2.92139C16.1116 2.95704 16.0657 2.98493 16.0159 3.00244C15.9685 3.01902 15.9185 3.02524 15.8684 3.02295C15.8658 3.02296 15.8632 3.02396 15.8606 3.02393V3.02295C15.8117 3.02222 15.7633 3.01312 15.718 2.99463C15.694 2.98483 15.6711 2.97274 15.6497 2.9585L15.5901 2.90967C15.5171 2.83624 15.4759 2.73682 15.4758 2.6333C15.4758 2.52966 15.517 2.42946 15.5901 2.35596L16.3752 1.56689L15.5901 0.783691C15.5535 0.747314 15.524 0.704364 15.5042 0.656738C15.4842 0.608934 15.4739 0.55716 15.4739 0.505371C15.4739 0.453761 15.4843 0.402632 15.5042 0.35498C15.5241 0.307186 15.5533 0.263516 15.5901 0.227051C15.6635 0.15408 15.7629 0.112854 15.8665 0.112793Z" fill="#9C9C9C" stroke="#9C9C9C" stroke-width="0.225887"/>
<path d="M0.505127 15.3179C0.556916 15.3179 0.608689 15.3282 0.656494 15.3481C0.704165 15.3681 0.74804 15.3964 0.784424 15.4331H0.783447L1.56958 16.2192L2.35571 15.4331L2.36255 15.4272L2.42212 15.3853C2.48562 15.3488 2.5589 15.3306 2.63306 15.3335C2.73157 15.3374 2.82502 15.3781 2.89478 15.4478C2.96464 15.5176 3.00522 15.6117 3.00903 15.7104C3.01277 15.8091 2.97949 15.906 2.91528 15.981L2.9104 15.9868H2.90942L1.84595 17.0591L1.84497 17.0601C1.77198 17.1325 1.67336 17.1728 1.57056 17.1733C1.51909 17.1736 1.46783 17.1644 1.42017 17.145C1.37247 17.1255 1.32884 17.0963 1.29224 17.0601L1.29126 17.0591L0.226807 15.9868C0.153832 15.9134 0.112652 15.8139 0.112549 15.7104C0.112549 15.6068 0.15374 15.5066 0.226807 15.4331C0.263235 15.3964 0.307019 15.368 0.354736 15.3481C0.402451 15.3283 0.453438 15.3179 0.505127 15.3179ZM1.57056 2.78955C1.67336 2.79006 1.77197 2.83141 1.84497 2.90381L2.90942 3.96826C2.98249 4.04176 3.02368 4.14196 3.02368 4.24561C3.02359 4.3233 3.00066 4.39863 2.95825 4.4624L2.90942 4.52197C2.87281 4.55829 2.82922 4.58741 2.78149 4.60693C2.73383 4.6264 2.68259 4.63647 2.6311 4.63623C2.52822 4.6358 2.42975 4.59441 2.35669 4.52197H2.35571L1.56958 3.73584L0.784424 4.53271C0.748003 4.56943 0.704223 4.59874 0.656494 4.61865C0.608689 4.63857 0.556916 4.64893 0.505127 4.64893C0.45349 4.64889 0.40241 4.63849 0.354736 4.61865C0.306931 4.59874 0.263276 4.56948 0.226807 4.53271C0.153853 4.45923 0.112553 4.3599 0.112549 4.25635C0.112549 4.1528 0.153859 4.05346 0.226807 3.97998L1.29126 2.90479L1.29224 2.90381C1.32887 2.8675 1.37241 2.83835 1.42017 2.81885C1.46786 2.79942 1.51906 2.78925 1.57056 2.78955Z" fill="#9C9C9C" stroke="#9C9C9C" stroke-width="0.225887"/>
</svg>
