<svg width="17" height="12" viewBox="0 0 17 12" fill="none" xmlns="http://www.w3.org/2000/svg">
<path d="M4.60558 6.14078C5.06103 6.14078 5.50625 6.00572 5.88494 5.75269C6.26364 5.49965 6.55879 5.14001 6.73308 4.71922C6.90738 4.29845 6.95298 3.83543 6.86413 3.38873C6.77527 2.94204 6.55595 2.53172 6.2339 2.20967C5.91185 1.88761 5.50153 1.6683 5.05483 1.57944C4.60814 1.49059 4.14512 1.53619 3.72434 1.71048C3.30356 1.88478 2.94392 2.17993 2.69088 2.55862C2.43785 2.93731 2.30279 3.38254 2.30279 3.83799C2.30279 4.44872 2.54541 5.03445 2.97726 5.4663C3.40912 5.89816 3.99484 6.14078 4.60558 6.14078ZM4.60558 3.07039C4.7574 3.07039 4.90581 3.11541 5.03204 3.19975C5.15827 3.2841 5.25665 3.40398 5.31475 3.54424C5.37285 3.6845 5.38805 3.83884 5.35843 3.98774C5.32881 4.13664 5.25571 4.27341 5.14836 4.38076C5.041 4.48811 4.90423 4.56121 4.75533 4.59083C4.60643 4.62045 4.4521 4.60525 4.31184 4.54715C4.17158 4.48905 4.05169 4.39067 3.96735 4.26444C3.883 4.13821 3.83799 3.9898 3.83799 3.83799C3.83799 3.63441 3.91886 3.43916 4.06281 3.29521C4.20676 3.15126 4.402 3.07039 4.60558 3.07039ZM14.5843 1.53519H8.44357C8.23999 1.53519 8.04475 1.61607 7.90079 1.76002C7.75684 1.90397 7.67597 2.09921 7.67597 2.30279V6.90837H1.53519V0.767597C1.53519 0.564018 1.45432 0.368776 1.31037 0.224824C1.16642 0.0808717 0.971176 0 0.767597 0C0.564018 0 0.368776 0.0808717 0.224824 0.224824C0.0808716 0.368776 0 0.564018 0 0.767597V10.7464C0 10.9499 0.0808716 11.1452 0.224824 11.2891C0.368776 11.4331 0.564018 11.514 0.767597 11.514C0.971176 11.514 1.16642 11.4331 1.31037 11.2891C1.45432 11.1452 1.53519 10.9499 1.53519 10.7464V8.44357H15.3519V10.7464C15.3519 10.9499 15.4328 11.1452 15.5768 11.2891C15.7207 11.4331 15.916 11.514 16.1195 11.514C16.3231 11.514 16.5184 11.4331 16.6623 11.2891C16.8063 11.1452 16.8871 10.9499 16.8871 10.7464V3.83799C16.8871 3.22725 16.6445 2.64152 16.2127 2.20967C15.7808 1.77781 15.1951 1.53519 14.5843 1.53519ZM15.3519 6.90837H9.21116V3.07039H14.5843C14.7879 3.07039 14.9832 3.15126 15.1271 3.29521C15.2711 3.43916 15.3519 3.63441 15.3519 3.83799V6.90837Z" fill="#9C9C9C"/>
</svg>
