<svg width="50" height="50" viewBox="0 0 50 50" fill="none" xmlns="http://www.w3.org/2000/svg">
<path fill-rule="evenodd" clip-rule="evenodd" d="M34.3125 50V30.6375H40.8125L41.785 23.0925H34.31V18.275C34.31 16.09 34.9175 14.6 38.0525 14.6H42.0475V7.85C40.1127 7.64411 38.1682 7.54396 36.2225 7.55C30.4625 7.55 26.52 11.0675 26.52 17.525V23.0925H20V30.6375H26.5175V50H2.76C1.235 50 0 48.765 0 47.24V2.76C0 1.235 1.235 0 2.76 0H47.24C48.765 0 50 1.235 50 2.76V47.24C50 48.765 48.765 50 47.24 50H34.3125Z" fill="#FCFCFC"/>
</svg>
