<svg width="18" height="12" viewBox="0 0 18 12" fill="none" xmlns="http://www.w3.org/2000/svg">
<path d="M10.2324 0.12793C11.1317 0.12793 11.9766 0.594057 12.4648 1.35742L12.5576 1.51465L14.1836 4.49805L17.4746 5.6084L17.5547 5.6416C17.7314 5.73033 17.834 5.89638 17.834 6.09863V9.57324C17.8338 9.85726 17.6014 10.0889 17.3174 10.0889H15.8457C15.6199 10.989 14.7989 11.6416 13.8428 11.6416C12.8869 11.6414 12.0666 10.9889 11.8408 10.0889H6.14062C5.91488 10.989 5.09383 11.6416 4.1377 11.6416C3.18163 11.6415 2.36045 10.989 2.13477 10.0889H0.644531C0.360475 10.0889 0.128116 9.85726 0.12793 9.57324V4.81738C0.12793 4.8024 0.127573 4.76456 0.147461 4.72266V4.70703L0.163086 4.67871L1.89062 1.51465L1.9834 1.35742C2.46938 0.594453 3.29783 0.12793 4.21582 0.12793H10.2324ZM4.11816 8.55566C3.54845 8.55587 3.08203 9.02301 3.08203 9.59277C3.08228 10.1623 3.5486 10.6287 4.11816 10.6289C4.6879 10.6289 5.15502 10.1625 5.15527 9.59277C5.15527 9.02288 4.68806 8.55566 4.11816 8.55566ZM13.8242 8.55566C13.2543 8.55566 12.7871 9.02288 12.7871 9.59277C12.7874 10.1625 13.2545 10.6289 13.8242 10.6289C14.3938 10.6287 14.8601 10.1623 14.8604 9.59277C14.8604 9.02302 14.3939 8.55589 13.8242 8.55566ZM1.14062 7.52344H4.11816C5.07423 7.52344 5.89528 8.17609 6.12109 9.07617H11.8213C12.0471 8.1761 12.8682 7.52344 13.8242 7.52344C14.7801 7.52363 15.6004 8.17625 15.8262 9.07617H16.8018V6.46191L13.7461 5.4502H1.14062V7.52344ZM1.14062 9.07617H2.11719C2.16439 8.88935 2.23348 8.71717 2.32812 8.55566H1.14062V9.07617ZM6.76953 4.41797H12.9492L11.6533 2.02441V2.02344C11.3645 1.50186 10.8247 1.17969 10.2324 1.17969H6.76953V4.41797ZM4.21582 1.17969C3.62338 1.17969 3.08266 1.50156 2.79395 2.02344L2.79492 2.02441L1.49902 4.41797H5.7373V1.17969H4.21582Z" fill="#9C9C9C" stroke="#9C9C9C" stroke-width="0.255866"/>
</svg>
